<svg width="180" height="180" viewBox="0 0 180 180" fill="none" xmlns="http://www.w3.org/2000/svg">
<rect width="180" height="180" fill="#011C40"/>
<path fill-rule="evenodd" clip-rule="evenodd" d="M2.32333 120.443L37.7296 73.6111L47.4159 78.6845L70.4637 42L84.8261 58.7818L90.171 54.4886L110.88 80.246L125.577 63.0741L166.661 120.443L127.08 71.6605L121.067 92.1489L126.579 108.345L91.1726 60.5378L90.7892 76.8497L110.88 120.443L73.3022 52.9271L84.1583 89.4171L68.9608 53.9029L60.6101 77.5142L62.2795 62.0982L41.4033 117.711L43.9078 94.295L35.2237 84.9294L2.32333 120.443Z" fill="#F9FBFD"/>
<path fill-rule="evenodd" clip-rule="evenodd" d="M178.564 127.767C122.505 83.4026 35.2519 144.395 0 120.874C38.7574 154.205 129.348 97.8596 178.564 127.767Z" fill="#F9FBFD"/>
<path fill-rule="evenodd" clip-rule="evenodd" d="M180 131.256C136.017 103.789 70.6032 142.013 37.0772 133.161C73.4057 150.442 141.038 112.154 180 131.256Z" fill="#F9FBFD"/>
</svg>
